<svg width="16" height="16" viewBox="0 0 16 16" fill="none" xmlns="http://www.w3.org/2000/svg">
<path d="M2.5 2C2.5 1.72386 2.72386 1.5 3 1.5H7.29289C7.4255 1.5 7.55268 1.55268 7.64645 1.64645L9.35355 3.35355C9.44732 3.44732 9.5745 3.5 9.70711 3.5H15C15.2761 3.5 15.5 3.72386 15.5 4L15.5 7.2697L15.5 13C15.5 13.2761 15.2761 13.5 15 13.5H3C2.72386 13.5 2.5 13.2761 2.5 13V2Z" fill="var(--mw-icon-background-light-yellow, #FFF5BC)" stroke="#674C06"/>
<path d="M1.14039 5.5H13.1096C13.339 5.5 13.539 5.65615 13.5947 5.87873L15.3447 12.8787C15.4236 13.1943 15.1849 13.5 14.8596 13.5H2.89039C2.66095 13.5 2.46096 13.3439 2.40532 13.1213L0.655317 6.12127C0.576424 5.80569 0.815103 5.5 1.14039 5.5Z" fill="var(--mw-icon-background-light-yellow, #FFF5BC)" stroke="#674C06"/>
</svg>
